<svg width="953" height="1081" viewBox="0 0 953 1081" fill="none" xmlns="http://www.w3.org/2000/svg">
<path d="M569.677 190.123C513.88 258.735 476.207 389.803 476.207 540.276C476.207 690.747 513.88 821.817 569.677 890.427V890.5C534.126 1006.78 481.223 1080.55 422.134 1080.55C362.564 1080.55 309.187 1005.57 273.711 887.607C328.223 818.266 364.909 688.697 364.909 540.276C364.909 391.888 328.223 262.359 273.711 192.943C309.187 74.9821 362.564 -2.73119e-05 422.134 -2.73119e-05C481.223 -2.73119e-05 534.126 73.774 569.677 190.05V190.123Z" fill="#F7F4F3"/>
<path d="M814.301 749.392C798.304 806.946 775.897 854.943 749.17 888.48C722.518 922.089 691.617 941.309 658.594 941.309C626.339 941.309 596.025 922.894 569.666 890.492V890.419C598.479 796.109 615.906 673.898 615.906 540.269C615.906 406.674 598.479 284.356 569.666 190.116V190.043C596.025 157.717 626.339 139.228 658.594 139.228C724.53 139.228 782.305 216.039 814.301 331.145C765.499 354.246 729.292 439.074 729.292 540.269C729.292 641.426 765.499 726.292 814.301 749.392Z" fill="#F7F4F3"/>
<path d="M228.346 540.269C228.346 672.544 245.404 793.693 273.708 887.599C246.872 921.759 215.751 941.309 182.472 941.309C81.6804 941.309 0 761.768 0 540.269C0 318.77 81.6804 139.228 182.472 139.228C215.751 139.228 246.872 158.778 273.708 192.935C245.404 286.845 228.346 407.991 228.346 540.269Z" fill="#F7F4F3"/>
<path d="M952.89 540.274C952.89 659.224 902.807 755.622 841.077 755.622C831.852 755.622 822.884 753.463 814.314 749.398C822.811 718.938 829.509 685.805 834.084 650.73C838.626 615.657 841.077 578.57 841.077 540.274C841.077 463.645 831.34 392.07 814.314 331.15C822.884 327.085 831.852 324.926 841.077 324.926C902.807 324.926 952.89 421.322 952.89 540.274Z" fill="#F7F4F3"/>
</svg>
